<svg width="16" height="16" viewBox="0 0 16 16" fill="none" xmlns="http://www.w3.org/2000/svg">
<path fill-rule="evenodd" clip-rule="evenodd" d="M13.7347 2.22222C13.7347 2.89724 13.1875 3.44444 12.5125 3.44444C11.8374 3.44444 11.2902 2.89724 11.2902 2.22222C11.2902 1.54721 11.8374 1 12.5125 1C13.1875 1 13.7347 1.54721 13.7347 2.22222ZM14.7347 2.22222C14.7347 3.44952 13.7398 4.44444 12.5125 4.44444C11.2852 4.44444 10.2902 3.44952 10.2902 2.22222C10.2902 0.994923 11.2852 0 12.5125 0C13.7398 0 14.7347 0.994923 14.7347 2.22222ZM6.55595 2.67115C6.69264 2.1849 7.38194 2.1849 7.51863 2.67115L8.50165 6.16798C8.66179 6.73766 9.14191 7.15995 9.72737 7.24607L12.4246 7.64283C12.9811 7.72468 12.9995 8.5208 12.4474 8.62829L9.67788 9.16749C9.11373 9.27732 8.66194 9.69985 8.51464 10.2554L7.52059 14.0044C7.38913 14.5002 6.68545 14.5002 6.55399 14.0044L5.56204 10.2633C5.41311 9.70163 4.95318 9.2765 4.38154 9.17214L1.40995 8.62961C0.850823 8.52752 0.868373 7.7201 1.43143 7.64243L4.33561 7.24181C4.92666 7.16028 5.41319 6.73621 5.57466 6.16182L6.55595 2.67115ZM8.48132 2.40052C8.07124 0.941777 6.00334 0.941776 5.59326 2.40052L4.61198 5.8912C4.55816 6.08266 4.39598 6.22402 4.19896 6.25119L1.29478 6.65181C-0.394349 6.88481 -0.447073 9.30709 1.23034 9.61335L4.20194 10.1559C4.39249 10.1907 4.54579 10.3324 4.59544 10.5196L5.58739 14.2607C5.98178 15.7481 8.0928 15.7481 8.48719 14.2607L9.48124 10.5117C9.53034 10.3265 9.68093 10.1857 9.86899 10.1491L12.6385 9.60986C14.2948 9.2874 14.2395 6.89904 12.5701 6.65348L9.87291 6.25672C9.67775 6.22801 9.51771 6.08725 9.46433 5.89735L8.48132 2.40052ZM12.0674 13.333V11.5557H13.0674V13.333H14.7353V14.333H13.0674V16.0001H12.0674V14.333H10.2909V13.333H12.0674Z" fill="white"/>
</svg>
