<svg width="17" height="17" viewBox="0 0 17 17" fill="none" xmlns="http://www.w3.org/2000/svg">
<path fill-rule="evenodd" clip-rule="evenodd" d="M4.5 1.41421L15.1066 12.0208L11.8461 15.2814L9.25339 12.6887L11.2178 10.7243L10.5107 10.0172L8.54629 11.9816L7.24968 10.685L8.54587 9.3888L7.83876 8.68169L6.54257 9.97788L5.24604 8.68135L7.21004 6.71736L6.50293 6.01025L4.53894 7.97425L3.24294 6.67825L4.53936 5.38183L3.83225 4.67472L2.53583 5.97114L1.23945 4.67476L4.5 1.41421ZM3.79289 0.707106C4.18342 0.316582 4.81658 0.316583 5.20711 0.707107L15.8137 11.3137C16.2042 11.7042 16.2042 12.3374 15.8137 12.7279L12.5532 15.9885C12.1626 16.379 11.5295 16.379 11.1389 15.9885L0.532345 5.38187C0.141821 4.99134 0.141821 4.35818 0.532345 3.96765L3.79289 0.707106ZM11.8458 12.6888L12.5137 12.021L13.2208 12.7281L12.553 13.3959L11.8458 12.6888Z" fill="white"/>
</svg>
