<svg width="16" height="16" viewBox="0 0 16 16" fill="none" xmlns="http://www.w3.org/2000/svg">
<path fill-rule="evenodd" clip-rule="evenodd" d="M2.41049 0.390944C1.52031 0.281158 0.735896 0.984801 0.764242 1.88829C0.933065 7.26923 2.33401 10.334 4.50232 12.5023C5.23217 13.2322 6.32309 13.6536 7.35217 13.8829C8.39152 14.1144 9.44634 14.167 10.1753 14.1024C10.484 14.075 10.7448 14.156 10.888 14.2992L11.3396 14.7508C11.9254 15.3366 12.8751 15.3366 13.4609 14.7508L15.2146 12.9971C15.8004 12.4114 15.8004 11.4616 15.2146 10.8758L14.6606 10.3218C14.5491 10.2103 14.4865 10.0379 14.5031 9.8444C14.5622 9.15489 14.5709 8.13267 14.3703 7.08259C14.1706 6.03749 13.7539 4.91512 12.9217 4.08293C11.6964 2.85764 9.85482 2.04074 7.96239 1.47963C6.05828 0.915057 4.04089 0.592021 2.41049 0.390944ZM1.77291 2.11561C1.97189 7.15123 3.29995 9.88574 5.20943 11.7952C5.74197 12.3278 6.61398 12.6939 7.5696 12.9068C8.51494 13.1174 9.46658 13.1613 10.087 13.1063C10.5752 13.063 11.1726 13.1696 11.5951 13.5921L12.0467 14.0437C12.242 14.239 12.5586 14.239 12.7538 14.0437L14.5075 12.29C14.7028 12.0948 14.7028 11.7782 14.5075 11.5829L13.9535 11.0289C13.6082 10.6837 13.4682 10.209 13.5068 9.75899C13.5604 9.13369 13.5671 8.20715 13.3881 7.27026C13.2081 6.32837 12.8501 5.42554 12.2146 4.79004C11.1664 3.74182 9.51735 2.98371 7.67811 2.43838C5.92225 1.91776 4.04848 1.60669 2.47881 1.4073L6.64162 5.5701H6.93451L8.93451 5.5701C9.4868 5.5701 9.93451 6.01782 9.93451 6.5701V8.5701C9.93451 9.12239 9.4868 9.5701 8.93451 9.5701L6.93451 9.5701C6.38223 9.5701 5.93451 9.12239 5.93451 8.5701L5.93451 6.5701V6.27721L1.77291 2.11561ZM6.93451 8.5701L8.93451 8.5701L8.93451 6.5701L6.93451 6.5701L6.93451 8.5701Z" fill="white"/>
</svg>
